<svg width="626" height="728" viewBox="0 0 626 728" fill="none" xmlns="http://www.w3.org/2000/svg">
<path d="M335.042 178.007V195.274L86.4922 338.648V272.717L308.356 144.518C308.356 145.565 308.356 146.088 308.356 147.134C308.356 149.751 306.786 154.984 308.356 161.786C311.495 171.728 319.867 178.53 330.333 178.53C340.798 178.53 333.472 178.53 335.042 178.53V178.007Z" fill="#4F4F4F"/>
<path d="M335.042 263.824V240.277L86.4922 383.65V407.721L120.504 387.837V409.814L90.1549 427.081C126.26 527.548 222.017 599.758 334.519 599.758V285.8L290.565 310.917V288.94L334.519 263.824H335.042ZM192.714 367.952L148.76 393.069V371.093L192.714 345.976V367.952ZM263.878 326.615L219.924 351.731V329.755L263.878 304.638V326.615Z" fill="#4F4F4F"/>
<path d="M583.591 272.717V338.648L335.041 195.274V178.007C336.611 178.007 337.657 177.483 339.227 176.437C347.599 173.297 352.309 170.681 355.972 168.065C362.251 162.832 367.483 157.076 370.623 149.75L583.068 272.717H583.591Z" fill="#3F403E"/>
<path d="M583.591 407.197V383.127L335.041 239.753V263.3L378.995 288.417V310.393L335.041 285.277V599.235C447.543 599.235 543.823 527.025 579.405 426.558L549.055 409.29V387.313L583.068 407.197H583.591ZM450.682 352.254L406.728 327.138V305.161L450.682 330.278V352.254ZM521.846 393.592L477.892 368.476V346.499L521.846 371.616V393.592Z" fill="#3F403E"/>
<path d="M625.977 377.893C625.977 562.605 519.754 727.956 335.043 727.956C150.331 727.956 0.154297 578.303 0.154297 393.068C0.154297 207.833 69.7483 157.076 172.831 100.041C95.9114 152.367 45.6781 240.275 45.6781 339.695C45.6781 499.29 174.924 629.059 335.043 629.059C495.161 629.059 624.407 499.814 624.407 339.695" fill="#D5AF34"/>
<path d="M343.413 76.4944C340.796 77.5409 338.18 78.5872 335.564 80.157C318.819 88.0059 301.552 94.8084 283.761 100.564C275.912 102.657 268.063 104.75 260.214 105.797C254.458 106.32 248.702 106.321 243.47 104.228C239.807 102.658 237.714 100.565 236.144 96.9017C230.911 83.8202 225.155 71.2617 218.876 58.1802C217.307 54.5173 218.353 51.9009 222.016 50.8544C226.725 49.2846 230.911 49.808 234.574 52.9475C239.807 57.1336 245.039 60.273 250.272 64.4591C252.365 66.0289 253.935 67.5989 256.028 68.6454C259.168 70.7385 262.307 71.2615 265.447 69.6917C286.9 60.273 308.877 50.331 330.331 40.9122C357.541 28.8772 384.227 16.8426 411.437 4.8076C419.809 1.14476 428.705 -0.425157 438.123 0.0981063C445.449 0.621369 452.775 2.71455 459.054 7.42392C460.624 8.47044 462.194 10.0398 463.24 11.6096C464.287 12.6562 463.763 14.2263 463.24 15.2729C461.67 17.3659 459.577 18.9357 457.484 20.5055C448.589 26.7846 438.647 32.017 428.705 37.2496C417.193 43.0055 405.681 48.7612 394.169 53.9938C393.123 54.5171 392.076 55.5636 391.553 56.6101C378.995 84.3431 365.913 112.076 353.355 139.809C351.262 144.518 348.122 148.705 343.936 151.844C341.32 153.937 333.471 156.554 332.424 157.077C331.378 157.077 330.331 157.077 330.331 156.03C330.331 154.46 330.331 153.414 330.331 151.844C332.948 140.856 334.517 129.344 336.61 118.355C339.227 105.797 341.32 93.239 343.413 80.6807C343.413 79.6342 343.413 78.0642 343.936 76.4944H343.413Z" fill="#D5AF34"/>
<path d="M339.753 25.2155C336.091 26.7852 332.951 28.3552 329.288 29.925C321.439 33.5878 313.59 37.2506 305.741 40.3902C304.695 40.3902 304.172 40.3902 303.125 40.3902C293.183 34.1111 283.241 28.3552 273.822 22.076C271.729 21.0295 270.159 19.4601 268.59 17.8903C267.02 16.3205 267.02 15.2736 269.113 14.2271C270.159 13.7038 271.206 13.1809 272.253 12.6577C276.439 10.0414 281.148 9.51758 285.857 9.51758C292.136 9.51758 297.892 11.0877 303.648 13.1808C315.16 16.8436 327.195 20.5064 338.707 24.1692C338.707 24.1692 339.753 24.1691 339.753 24.6923V25.2155Z" fill="#D5AF34"/>
</svg>
