<svg width="148" height="31" viewBox="0 0 148 31" fill="none" xmlns="http://www.w3.org/2000/svg">
<path d="M17.721 8.20119V8.77976L9.62427 13.5837V11.3746L16.8516 7.0791C16.8516 7.11417 16.8516 7.1317 16.8516 7.16676C16.8516 7.25443 16.8005 7.42976 16.8516 7.65769C16.9539 7.99081 17.2266 8.21872 17.5676 8.21872C17.9085 8.21872 17.6698 8.21872 17.721 8.21872V8.20119Z" fill="#4F4F4F"/>
<path d="M17.755 11.4834V10.7378L9.62427 15.2777V16.0399L10.7369 15.4103V16.1062L9.74409 16.653C10.9252 19.8343 14.0577 22.1208 17.7379 22.1208V12.1793L16.3 12.9746V12.2787L17.7379 11.4834H17.755ZM13.0991 14.7807L11.6612 15.576V14.8801L13.0991 14.0848V14.7807ZM15.4271 13.4717L13.9892 14.267V13.5711L15.4271 12.7758V13.4717Z" fill="#4F4F4F"/>
<path d="M25.8858 11.5971V13.5836L17.755 9.26373V8.74346C17.8064 8.74346 17.8406 8.72768 17.8919 8.69615C18.1658 8.60156 18.3199 8.52273 18.4397 8.4439C18.6451 8.28624 18.8163 8.11281 18.919 7.89209L25.8686 11.5971H25.8858Z" fill="#3F403E"/>
<path d="M25.8858 16.0399V15.2778L17.755 10.7378V11.4834L19.1929 12.2787V12.9746L17.755 12.1793V22.1208C21.4352 22.1208 24.5848 19.8343 25.7488 16.653L24.756 16.1062V15.4103L25.8686 16.0399H25.8858ZM21.5379 14.3002L20.1001 13.5049V12.8089L21.5379 13.6043V14.3002ZM23.8659 15.6091L22.428 14.8138V14.1179L23.8659 14.9132V15.6091Z" fill="#3F403E"/>
<path d="M27.512 15.0339C27.512 21.133 23.9928 26.5928 17.8734 26.5928C11.7539 26.5928 6.77856 21.6513 6.77856 15.535C6.77856 9.41861 9.0842 7.74266 12.4993 5.85938C9.95099 7.58716 8.28676 10.4898 8.28676 13.7726C8.28676 19.0424 12.5687 23.3273 17.8734 23.3273C23.1781 23.3273 27.46 19.0597 27.46 13.7726" fill="#D5AF34"/>
<path d="M18.0419 5.18065C17.951 5.21586 17.8601 5.25107 17.7692 5.30388C17.1873 5.56797 16.5873 5.79684 15.969 5.99051C15.6963 6.06093 15.4235 6.13135 15.1507 6.16656C14.9507 6.18417 14.7507 6.18418 14.5689 6.11376C14.4416 6.06094 14.3689 5.99051 14.3143 5.86727C14.1325 5.42713 13.9324 5.0046 13.7142 4.56445C13.6597 4.44122 13.6961 4.35318 13.8233 4.31797C13.987 4.26515 14.1325 4.28276 14.2598 4.3884C14.4416 4.52924 14.6234 4.63487 14.8053 4.77571C14.878 4.82853 14.9325 4.88136 15.0053 4.91657C15.1144 4.98699 15.2235 5.00459 15.3326 4.95177C16.0781 4.63487 16.8418 4.30036 17.5873 3.98346C18.5329 3.57853 19.4603 3.17362 20.4058 2.76869C20.6967 2.64545 21.0059 2.59263 21.3332 2.61023C21.5877 2.62784 21.8423 2.69827 22.0605 2.85672C22.1151 2.89193 22.1696 2.94473 22.206 2.99755C22.2424 3.03276 22.2242 3.08559 22.206 3.1208C22.1514 3.19122 22.0787 3.24404 22.006 3.29686C21.6968 3.50813 21.3514 3.68417 21.0059 3.86023C20.6058 4.05389 20.2058 4.24754 19.8058 4.4236C19.7694 4.44121 19.733 4.47642 19.7148 4.51163C19.2784 5.44473 18.8238 6.37783 18.3874 7.31093C18.3147 7.46938 18.2056 7.61023 18.0601 7.71587C17.9692 7.78629 17.6965 7.87432 17.6601 7.89192C17.6237 7.89192 17.5873 7.89191 17.5873 7.8567C17.5873 7.80388 17.5873 7.76868 17.5873 7.71587C17.6783 7.34615 17.7328 6.95882 17.8056 6.5891C17.8965 6.16657 17.9692 5.74404 18.0419 5.3215C18.0419 5.28629 18.0419 5.23347 18.0601 5.18065H18.0419Z" fill="#D5AF34"/>
<path d="M17.755 3.4271C17.6314 3.46844 17.5255 3.50979 17.4019 3.55113C17.137 3.6476 16.8721 3.74406 16.6073 3.82675C16.5719 3.82675 16.5543 3.82675 16.519 3.82675C16.1835 3.66138 15.848 3.50979 15.5301 3.34442C15.4595 3.31685 15.4065 3.27552 15.3536 3.23418C15.3006 3.19284 15.3006 3.16526 15.3712 3.1377C15.4065 3.12392 15.4418 3.11015 15.4772 3.09637C15.6184 3.02747 15.7773 3.01367 15.9363 3.01367C16.1482 3.01367 16.3424 3.05502 16.5366 3.11015C16.9251 3.20661 17.3312 3.30308 17.7197 3.39954C17.7197 3.39954 17.755 3.39954 17.755 3.41332V3.4271Z" fill="#D5AF34"/>
<path d="M30.0656 5.58573C30.1581 5.58573 30.3694 5.58573 30.6996 5.58573C31.0299 5.57252 31.3998 5.56591 31.8092 5.56591C32.2187 5.56591 32.6282 5.56591 33.0377 5.56591C33.4472 5.5527 33.7841 5.5461 34.0483 5.5461C35.5806 5.5461 36.743 5.84992 37.5356 6.45756C38.3414 7.0652 38.7442 7.92381 38.7442 9.03341C38.7442 9.68068 38.5659 10.2619 38.2093 10.7771C37.8526 11.2922 37.3572 11.7083 36.7232 12.0254C37.5158 12.3292 38.1168 12.7585 38.5263 13.3133C38.949 13.8681 39.1603 14.5088 39.1603 15.2353C39.1603 16.3713 38.731 17.2894 37.8724 17.9895C37.0138 18.6764 35.7127 19.0198 33.969 19.0198C33.6123 19.0198 33.2293 19.0198 32.8198 19.0198C32.4103 19.0198 32.0206 19.0132 31.6507 19C31.2809 19 30.9506 19 30.66 19C30.3826 19 30.1845 19 30.0656 19V5.58573ZM32.4235 17.3158H34.1275C35.0258 17.3158 35.6664 17.1176 36.0495 16.7214C36.4458 16.3119 36.6439 15.8033 36.6439 15.1957C36.6439 14.9183 36.5977 14.6475 36.5052 14.3833C36.426 14.1191 36.2807 13.8813 36.0693 13.67C35.858 13.4586 35.574 13.2935 35.2173 13.1746C34.8739 13.0425 34.4379 12.9765 33.9096 12.9765C33.5925 12.9765 33.3085 12.9765 33.0575 12.9765C32.8198 12.9765 32.6084 12.9831 32.4235 12.9963V17.3158ZM32.4235 11.2922H33.9492C34.7814 11.2922 35.3758 11.1007 35.7325 10.7176C36.0891 10.3346 36.2675 9.86561 36.2675 9.31081C36.2675 9.05983 36.2278 8.80885 36.1486 8.55787C36.0693 8.30689 35.9306 8.08233 35.7325 7.88418C35.5475 7.68604 35.29 7.52753 34.9597 7.40864C34.6427 7.28976 34.2398 7.23031 33.751 7.23031C33.4604 7.23031 33.2029 7.23031 32.9783 7.23031C32.7669 7.23031 32.582 7.23692 32.4235 7.25013V11.2922ZM43.5478 5.58573H45.4104L50.5819 19H48.0655L46.837 15.4929H42.0023L40.7342 19H38.3961L43.5478 5.58573ZM46.2227 13.7492C45.8 12.5604 45.4368 11.4838 45.133 10.5195C44.8291 9.54198 44.598 8.77583 44.4395 8.22103C44.2545 8.81546 44.0101 9.59482 43.7063 10.5591C43.4025 11.5234 43.0459 12.5868 42.6364 13.7492H46.2227ZM50.4921 5.58573H52.85V19H50.4921V5.58573ZM59.785 5.58573C59.5737 6.57644 59.3359 7.42185 59.0717 8.12196C58.8207 8.80885 58.5433 9.39668 58.2395 9.88543C57.9357 10.361 57.5988 10.7705 57.229 11.1139C56.8723 11.4442 56.4892 11.748 56.0797 12.0254L60.954 19H58.2197L53.1076 11.748V11.6093C54.3229 11.1601 55.2607 10.427 55.9212 9.40989C56.5949 8.37954 57.1101 7.10482 57.4667 5.58573H59.785ZM60.8118 5.58573H63.1697V19H60.8118V5.58573ZM70.1047 5.58573C69.8933 6.57644 69.6556 7.42185 69.3914 8.12196C69.1404 8.80885 68.863 9.39668 68.5592 9.88543C68.2554 10.361 67.9185 10.7705 67.5486 11.1139C67.192 11.4442 66.8089 11.748 66.3994 12.0254L71.2737 19H68.5394L63.4273 11.748V11.6093C64.6425 11.1601 65.5804 10.427 66.2409 9.40989C66.9146 8.37954 67.4298 7.10482 67.7864 5.58573H70.1047ZM75.1841 5.58573H77.0467L82.2182 19H79.7018L78.4733 15.4929H73.6386L72.3705 19H70.0324L75.1841 5.58573ZM77.859 13.7492C77.4363 12.5604 77.0731 11.4838 76.7693 10.5195C76.4654 9.54198 76.2343 8.77583 76.0758 8.22103C75.8908 8.81546 75.6464 9.59482 75.3426 10.5591C75.0388 11.5234 74.6821 12.5868 74.2727 13.7492H77.859ZM90.0145 12.8972H84.4863V19H82.1284V5.58573H84.4863V11.1734H90.0145V5.58573H92.3724V19H90.0145V12.8972ZM97.4272 5.58573C97.5197 5.58573 97.731 5.58573 98.0612 5.58573C98.3915 5.57252 98.7614 5.56591 99.1708 5.56591C99.5803 5.56591 99.9898 5.56591 100.399 5.56591C100.809 5.5527 101.146 5.5461 101.41 5.5461C103.048 5.5461 104.243 5.86973 104.996 6.517C105.749 7.15106 106.126 8.0493 106.126 9.21174C106.126 9.9779 105.934 10.6582 105.551 11.2526C105.168 11.847 104.541 12.2764 103.669 12.5405C104.039 12.7519 104.369 13.0425 104.659 13.4124C104.95 13.7822 105.234 14.238 105.511 14.7796C105.789 15.3079 106.073 15.9288 106.363 16.6421C106.654 17.3422 106.991 18.1282 107.374 19H104.818C104.369 17.9564 103.973 17.0648 103.629 16.3251C103.299 15.5853 102.975 14.9843 102.658 14.522C102.341 14.0596 101.998 13.7228 101.628 13.5114C101.271 13.3001 100.848 13.1944 100.36 13.1944H99.7851V19H97.4272V5.58573ZM99.7851 11.4706H101.311C102.051 11.4706 102.619 11.3055 103.015 10.9752C103.424 10.645 103.629 10.1562 103.629 9.50896C103.629 9.21835 103.589 8.93434 103.51 8.65694C103.431 8.37954 103.292 8.13517 103.094 7.92381C102.909 7.71246 102.652 7.54734 102.321 7.42846C102.004 7.29636 101.601 7.23031 101.113 7.23031H99.7851V11.4706ZM107.418 5.58573H115.383V7.36901H109.776V11.1139H114.393L114.095 12.917H109.776V17.2167H115.68V19H107.418V5.58573ZM116.19 5.58573H118.548V19H116.19V5.58573ZM123.794 5.4074C124.256 5.4074 124.699 5.45363 125.122 5.5461C125.544 5.62536 125.927 5.72443 126.271 5.84331C126.628 5.94899 126.925 6.06127 127.163 6.18016C127.414 6.29904 127.585 6.39151 127.678 6.45756L126.707 8.16158L126.449 8.02289C126.278 7.93042 126.053 7.82474 125.776 7.70586C125.498 7.58697 125.194 7.48129 124.864 7.38883C124.534 7.29636 124.217 7.25013 123.913 7.25013C123.437 7.25013 123.021 7.36241 122.665 7.58697C122.321 7.81153 122.15 8.16159 122.15 8.63713C122.15 9.23156 122.341 9.72031 122.724 10.1034C123.107 10.4733 123.708 10.8167 124.527 11.1337C125.056 11.3451 125.525 11.5696 125.934 11.8074C126.357 12.032 126.713 12.2962 127.004 12.6C127.295 12.9038 127.513 13.2539 127.658 13.6501C127.816 14.0464 127.896 14.522 127.896 15.0768C127.896 15.5787 127.797 16.0741 127.598 16.5628C127.414 17.0516 127.13 17.4875 126.746 17.8706C126.377 18.2405 125.914 18.5443 125.359 18.782C124.805 19.0066 124.164 19.1189 123.437 19.1189C122.922 19.1189 122.434 19.066 121.971 18.9604C121.509 18.8547 121.086 18.7358 120.703 18.6037C120.333 18.4584 120.01 18.3131 119.732 18.1678C119.468 18.0225 119.27 17.9102 119.138 17.831L119.97 16.008L120.327 16.2062C120.564 16.3383 120.855 16.4836 121.198 16.6421C121.542 16.8006 121.905 16.9459 122.288 17.078C122.671 17.2101 123.002 17.2762 123.279 17.2762C123.979 17.2762 124.501 17.1044 124.844 16.761C125.188 16.4175 125.359 15.9354 125.359 15.3145C125.359 15.0239 125.313 14.773 125.221 14.5616C125.128 14.337 124.996 14.1455 124.824 13.987C124.653 13.8285 124.441 13.6898 124.19 13.5709C123.953 13.4388 123.682 13.3133 123.378 13.1944C122.784 12.9434 122.249 12.6925 121.773 12.4415C121.311 12.1905 120.914 11.9065 120.584 11.5895C120.254 11.2592 120.003 10.8894 119.831 10.4799C119.66 10.0572 119.574 9.55519 119.574 8.97397C119.574 8.48522 119.679 8.02949 119.891 7.60679C120.102 7.17087 120.393 6.7944 120.763 6.47737C121.132 6.14713 121.575 5.88955 122.09 5.70461C122.605 5.50647 123.173 5.4074 123.794 5.4074ZM128.586 5.58573H136.551V7.36901H130.944V11.1139H135.561L135.263 12.917H130.944V17.2167H136.848V19H128.586V5.58573ZM145.283 5.58573H147.641V19.0198H145.68L141.162 11.9659C140.911 11.5829 140.634 11.1535 140.33 10.678C140.039 10.1892 139.762 9.74012 139.498 9.33063C139.537 9.75333 139.57 10.1959 139.597 10.6582C139.636 11.1205 139.656 11.563 139.656 11.9857L139.716 19H137.358V5.5461H139.2L143.857 12.5207C144.121 12.9038 144.385 13.3133 144.649 13.7492C144.927 14.1719 145.197 14.5814 145.462 14.9777C145.435 14.555 145.409 14.1323 145.382 13.7096C145.356 13.2737 145.343 12.9038 145.343 12.6L145.283 5.58573Z" fill="#4F4F4F"/>
<path d="M37.2779 21.3509V24.4096C37.2779 24.8622 37.3728 25.1858 37.5626 25.3805C37.7524 25.5703 38.0103 25.6652 38.3364 25.6652C38.6673 25.6652 38.9107 25.5557 39.0664 25.3367C39.227 25.1128 39.3073 24.8038 39.3073 24.4096V21.3509H40.176V24.4753C40.176 24.7283 40.1419 24.9668 40.0738 25.1907C40.0105 25.4145 39.9035 25.6116 39.7526 25.782C39.6017 25.9523 39.4022 26.0886 39.154 26.1908C38.9058 26.2881 38.6016 26.3368 38.2415 26.3368C37.896 26.3368 37.6064 26.2881 37.3728 26.1908C37.1441 26.0886 36.9567 25.9523 36.8107 25.782C36.6696 25.6116 36.5674 25.4145 36.5041 25.1907C36.4457 24.9668 36.4165 24.7283 36.4165 24.4753V21.3509H37.2779ZM45.3512 26.293V23.9132C45.3512 23.7088 45.3196 23.5482 45.2563 23.4314C45.193 23.3097 45.0835 23.2489 44.9278 23.2489C44.8353 23.2489 44.7404 23.2756 44.6431 23.3292C44.5506 23.3778 44.4655 23.4508 44.3876 23.5482C44.3097 23.6455 44.2465 23.7623 44.1978 23.8986C44.1491 24.0348 44.1248 24.1857 44.1248 24.3512V26.293H43.2999V23.9132C43.2999 23.7088 43.2683 23.5482 43.205 23.4314C43.1417 23.3097 43.0322 23.2489 42.8765 23.2489C42.7792 23.2489 42.6818 23.2781 42.5845 23.3365C42.492 23.39 42.4069 23.4703 42.329 23.5774C42.256 23.6844 42.1952 23.8158 42.1465 23.9716C42.1027 24.1224 42.0808 24.2928 42.0808 24.4826V26.293H41.2486V24.4534C41.2486 24.1614 41.2291 23.918 41.1902 23.7234C41.1513 23.5238 41.1099 23.3632 41.0661 23.2416C41.0126 23.1004 40.9542 22.9861 40.8909 22.8985L41.5479 22.6357C41.5966 22.6892 41.6452 22.7549 41.6939 22.8328C41.7328 22.9009 41.7718 22.9861 41.8107 23.0883C41.8496 23.1856 41.8813 23.2975 41.9056 23.4241C42.0273 23.1321 42.1976 22.9228 42.4166 22.7963C42.6405 22.6649 42.8765 22.5992 43.1247 22.5992C43.3729 22.5992 43.5651 22.6624 43.7014 22.789C43.8425 22.9155 43.9472 23.0785 44.0153 23.2781C44.1467 23.0347 44.3146 22.862 44.519 22.7598C44.7283 22.6527 44.9473 22.5992 45.176 22.5992C45.3658 22.5992 45.524 22.6308 45.6505 22.6941C45.7819 22.7525 45.8841 22.8376 45.9571 22.9496C46.035 23.0566 46.0909 23.188 46.125 23.3438C46.1591 23.4946 46.1761 23.665 46.1761 23.8548V26.293H45.3512ZM48.8595 23.4168C48.7719 23.4168 48.6843 23.4387 48.5967 23.4825C48.5091 23.5263 48.4313 23.5871 48.3631 23.665C48.295 23.738 48.239 23.828 48.1952 23.9351C48.1514 24.0421 48.1295 24.1614 48.1295 24.2928V26.293H47.2973V24.4534C47.2973 24.1614 47.2779 23.918 47.2389 23.7234C47.2 23.5238 47.1586 23.3632 47.1148 23.2416C47.0613 23.1004 47.0029 22.9861 46.9396 22.8985L47.5966 22.6357C47.6404 22.6892 47.6867 22.7549 47.7353 22.8328C47.7743 22.9009 47.8132 22.9812 47.8521 23.0737C47.8911 23.1661 47.9227 23.2756 47.947 23.4022C48.0444 23.1199 48.1855 22.9179 48.3704 22.7963C48.5554 22.6697 48.7646 22.6065 48.9982 22.6065C49.1102 22.6065 49.2148 22.6211 49.3121 22.6503C49.4095 22.6746 49.4557 22.6868 49.4508 22.6868L49.2172 23.4971C49.2221 23.4971 49.1929 23.4849 49.1296 23.4606C49.0712 23.4314 48.9812 23.4168 48.8595 23.4168ZM52.786 24.5337C52.786 24.8257 52.803 25.0714 52.8371 25.271C52.876 25.4656 52.9174 25.6238 52.9612 25.7455C53.0147 25.8915 53.0731 26.0058 53.1364 26.0886L52.4867 26.3514C52.4234 26.2881 52.365 26.2127 52.3115 26.1251C52.2677 26.0472 52.2263 25.9547 52.1874 25.8477C52.1484 25.7357 52.1241 25.6043 52.1144 25.4535C52.0316 25.7455 51.8978 25.9669 51.7129 26.1178C51.5328 26.2638 51.287 26.3368 50.9756 26.3368C50.7468 26.3368 50.5473 26.2954 50.377 26.2127C50.2115 26.1251 50.0728 26.0034 49.9609 25.8477C49.8489 25.6871 49.7662 25.4948 49.7127 25.271C49.6591 25.0471 49.6324 24.7989 49.6324 24.5264C49.6324 24.249 49.6737 23.9935 49.7565 23.7599C49.8441 23.5214 49.9633 23.317 50.1142 23.1467C50.2699 22.9763 50.4548 22.8425 50.669 22.7452C50.8831 22.6478 51.1191 22.5992 51.3771 22.5992C51.5231 22.5992 51.6739 22.6113 51.8297 22.6357C51.9903 22.6551 52.1387 22.677 52.275 22.7014C52.4112 22.7257 52.5256 22.75 52.6181 22.7744C52.7154 22.7938 52.7714 22.806 52.786 22.8109V24.5337ZM51.1143 25.7528C51.2359 25.7528 51.3479 25.7114 51.4501 25.6287C51.5523 25.5459 51.6399 25.4389 51.7129 25.3075C51.7907 25.1712 51.8491 25.0179 51.8881 24.8476C51.9319 24.6724 51.9538 24.4947 51.9538 24.3147V23.2635C51.9051 23.2489 51.8321 23.2318 51.7348 23.2124C51.6374 23.1929 51.5498 23.1832 51.472 23.1832C51.287 23.1832 51.1337 23.2148 51.0121 23.2781C50.8953 23.3413 50.8004 23.4289 50.7274 23.5409C50.6544 23.6528 50.6033 23.7866 50.5741 23.9424C50.5449 24.0981 50.5303 24.2684 50.5303 24.4534C50.5303 24.6237 50.5351 24.7867 50.5449 24.9425C50.5546 25.0982 50.5789 25.2369 50.6179 25.3586C50.6617 25.4802 50.7225 25.5776 50.8004 25.6506C50.8782 25.7187 50.9829 25.7528 51.1143 25.7528ZM58.2465 22.935C58.227 22.9204 58.2002 22.8985 58.1662 22.8693C58.1321 22.8352 58.0883 22.8011 58.0348 22.7671C57.9861 22.733 57.9277 22.7038 57.8596 22.6795C57.7914 22.6503 57.716 22.6357 57.6333 22.6357C57.4824 22.6357 57.368 22.6722 57.2902 22.7452C57.2172 22.8133 57.1807 22.9058 57.1807 23.0226C57.1807 23.1394 57.2123 23.2635 57.2756 23.3949C57.3388 23.5214 57.4264 23.6552 57.5384 23.7964C57.6503 23.9375 57.7841 24.0859 57.9399 24.2417C58.0956 24.3925 58.2684 24.5507 58.4582 24.7162C58.5166 24.6188 58.5701 24.5239 58.6188 24.4315C58.6674 24.3341 58.7112 24.2368 58.7502 24.1395L59.3634 24.3877C59.3098 24.5093 59.249 24.6383 59.1809 24.7746C59.1176 24.906 59.0446 25.0349 58.9619 25.1615L59.67 25.7747L59.2539 26.3295L58.5093 25.7236C58.3243 25.9036 58.1102 26.0521 57.8669 26.1689C57.6235 26.2808 57.3413 26.3368 57.0201 26.3368C56.8546 26.3368 56.6916 26.31 56.531 26.2565C56.3752 26.1981 56.2341 26.1153 56.1076 26.0083C55.9859 25.8963 55.8861 25.7625 55.8083 25.6068C55.7353 25.4462 55.6988 25.2637 55.6988 25.0593C55.6988 24.8792 55.7231 24.7162 55.7718 24.5702C55.8253 24.4193 55.891 24.2855 55.9689 24.1687C56.0467 24.0519 56.1319 23.9497 56.2244 23.8621C56.3217 23.7745 56.4117 23.7015 56.4945 23.6431C56.3825 23.4192 56.3266 23.2002 56.3266 22.9861C56.3266 22.8547 56.3485 22.7281 56.3923 22.6065C56.4409 22.4799 56.5139 22.368 56.6113 22.2707C56.7135 22.1733 56.8424 22.0955 56.9982 22.0371C57.1588 21.9787 57.351 21.9495 57.5749 21.9495C57.8231 21.9495 58.0348 21.9981 58.21 22.0955C58.39 22.1879 58.5433 22.3145 58.6699 22.4751L58.2465 22.935ZM57.991 25.2856C57.772 25.1006 57.5627 24.9157 57.3632 24.7308C57.1685 24.5458 56.9982 24.3609 56.8522 24.176C56.784 24.249 56.7183 24.3512 56.6551 24.4826C56.5918 24.6091 56.5602 24.7648 56.5602 24.9498C56.5602 25.159 56.621 25.3245 56.7427 25.4462C56.8643 25.563 57.0371 25.6214 57.261 25.6214C57.3924 25.6214 57.5189 25.5922 57.6406 25.5338C57.7622 25.4754 57.879 25.3926 57.991 25.2856ZM65.2041 24.0446H63.1674V26.293H62.2987V21.3509H63.1674V23.4095H65.2041V21.3509H66.0728V26.293H65.2041V24.0446ZM70.0907 24.5337C70.0907 24.8257 70.1077 25.0714 70.1418 25.271C70.1807 25.4656 70.2221 25.6238 70.2659 25.7455C70.3194 25.8915 70.3778 26.0058 70.4411 26.0886L69.7914 26.3514C69.7281 26.2881 69.6697 26.2127 69.6162 26.1251C69.5724 26.0472 69.531 25.9547 69.4921 25.8477C69.4531 25.7357 69.4288 25.6043 69.4191 25.4535C69.3363 25.7455 69.2025 25.9669 69.0176 26.1178C68.8375 26.2638 68.5917 26.3368 68.2803 26.3368C68.0515 26.3368 67.852 26.2954 67.6817 26.2127C67.5162 26.1251 67.3775 26.0034 67.2656 25.8477C67.1536 25.6871 67.0709 25.4948 67.0174 25.271C66.9638 25.0471 66.9371 24.7989 66.9371 24.5264C66.9371 24.249 66.9784 23.9935 67.0612 23.7599C67.1488 23.5214 67.268 23.317 67.4189 23.1467C67.5746 22.9763 67.7595 22.8425 67.9737 22.7452C68.1878 22.6478 68.4238 22.5992 68.6818 22.5992C68.8278 22.5992 68.9786 22.6113 69.1344 22.6357C69.295 22.6551 69.4434 22.677 69.5797 22.7014C69.7159 22.7257 69.8303 22.75 69.9228 22.7744C70.0201 22.7938 70.0761 22.806 70.0907 22.8109V24.5337ZM68.419 25.7528C68.5406 25.7528 68.6526 25.7114 68.7548 25.6287C68.857 25.5459 68.9446 25.4389 69.0176 25.3075C69.0954 25.1712 69.1538 25.0179 69.1928 24.8476C69.2366 24.6724 69.2585 24.4947 69.2585 24.3147V23.2635C69.2098 23.2489 69.1368 23.2318 69.0395 23.2124C68.9421 23.1929 68.8545 23.1832 68.7767 23.1832C68.5917 23.1832 68.4384 23.2148 68.3168 23.2781C68.2 23.3413 68.1051 23.4289 68.0321 23.5409C67.9591 23.6528 67.908 23.7866 67.8788 23.9424C67.8496 24.0981 67.835 24.2684 67.835 24.4534C67.835 24.6237 67.8398 24.7867 67.8496 24.9425C67.8593 25.0982 67.8836 25.2369 67.9226 25.3586C67.9664 25.4802 68.0272 25.5776 68.1051 25.6506C68.1829 25.7187 68.2876 25.7528 68.419 25.7528ZM73.8511 26.3514C73.8414 26.3465 73.8195 26.3246 73.7854 26.2857C73.7514 26.2419 73.7124 26.1835 73.6686 26.1105C73.6297 26.0375 73.5908 25.9474 73.5518 25.8404C73.5129 25.7284 73.4886 25.5995 73.4788 25.4535C73.3961 25.7455 73.2623 25.9669 73.0773 26.1178C72.8973 26.2638 72.6515 26.3368 72.34 26.3368C72.1113 26.3368 71.9118 26.2954 71.7414 26.2127C71.576 26.1251 71.4373 26.0034 71.3253 25.8477C71.2134 25.6871 71.1307 25.4948 71.0771 25.271C71.0236 25.0471 70.9968 24.7989 70.9968 24.5264C70.9968 24.249 71.0382 23.9935 71.1209 23.7599C71.2085 23.5214 71.3278 23.317 71.4786 23.1467C71.6344 22.9763 71.8193 22.8425 72.0334 22.7452C72.2476 22.6478 72.4836 22.5992 72.7415 22.5992C72.8291 22.5992 72.9216 22.604 73.0189 22.6138C73.1211 22.6235 73.2209 22.6357 73.3182 22.6503V21.0005L74.1504 21.1465V24.5337C74.1504 24.8257 74.1675 25.069 74.2015 25.2637C74.2356 25.4535 74.2745 25.6092 74.3183 25.7309C74.3621 25.8477 74.4011 25.9328 74.4351 25.9864C74.4741 26.0399 74.496 26.074 74.5008 26.0886L73.8511 26.3514ZM72.4787 25.7455C72.6004 25.7455 72.7123 25.7041 72.8145 25.6214C72.9167 25.5386 73.0043 25.4316 73.0773 25.3002C73.1552 25.1639 73.2136 25.0106 73.2525 24.8403C73.2963 24.6699 73.3182 24.4947 73.3182 24.3147V23.2635C73.2696 23.2489 73.1966 23.2318 73.0992 23.2124C73.0019 23.1929 72.9143 23.1832 72.8364 23.1832C72.6515 23.1832 72.4982 23.2148 72.3765 23.2781C72.2597 23.3413 72.1648 23.4289 72.0918 23.5409C72.0188 23.6528 71.9677 23.7866 71.9385 23.9424C71.9093 24.0981 71.8947 24.2684 71.8947 24.4534C71.8947 24.6237 71.8996 24.7867 71.9093 24.9425C71.9191 25.0982 71.9434 25.2369 71.9823 25.3586C72.0261 25.4754 72.087 25.5703 72.1648 25.6433C72.2427 25.7114 72.3473 25.7455 72.4787 25.7455ZM76.3487 22.57C76.4898 22.57 76.6285 22.5846 76.7648 22.6138C76.9011 22.643 77.0227 22.677 77.1298 22.716C77.2563 22.7598 77.3731 22.806 77.4802 22.8547L77.232 23.4241C77.1347 23.3803 77.0373 23.3413 76.94 23.3073C76.8573 23.2781 76.7648 23.2513 76.6626 23.227C76.5653 23.1978 76.4679 23.1832 76.3706 23.1832C76.2587 23.1832 76.1613 23.2099 76.0786 23.2635C76.0007 23.317 75.9618 23.3973 75.9618 23.5044C75.9618 23.7818 76.1638 23.9983 76.5677 24.1541C76.7186 24.2125 76.8548 24.2757 76.9765 24.3439C77.0982 24.4071 77.2004 24.4826 77.2831 24.5702C77.3707 24.6578 77.4364 24.76 77.4802 24.8768C77.524 24.9887 77.5459 25.1225 77.5459 25.2783C77.5459 25.4145 77.5167 25.5484 77.4583 25.6798C77.4048 25.8112 77.322 25.928 77.2101 26.0302C77.103 26.1324 76.9692 26.2151 76.8086 26.2784C76.6529 26.3368 76.4752 26.366 76.2757 26.366C76.1151 26.366 75.9569 26.3465 75.8012 26.3076C75.6455 26.2735 75.5043 26.2346 75.3778 26.1908C75.2561 26.147 75.1588 26.1056 75.0858 26.0667L74.9763 26.0156L75.2464 25.4024L75.3413 25.4535C75.4046 25.4924 75.4849 25.5338 75.5822 25.5776C75.6795 25.6214 75.7842 25.6627 75.8961 25.7017C76.008 25.7357 76.1102 25.7528 76.2027 25.7528C76.373 25.7528 76.4996 25.7187 76.5823 25.6506C76.665 25.5824 76.7064 25.4924 76.7064 25.3805C76.7064 25.2539 76.6602 25.1396 76.5677 25.0374C76.4801 24.9303 76.3463 24.8427 76.1662 24.7746C75.7915 24.6334 75.5214 24.4728 75.3559 24.2928C75.1953 24.1127 75.115 23.8791 75.115 23.592C75.115 23.4557 75.1466 23.3267 75.2099 23.2051C75.2732 23.0785 75.3583 22.969 75.4654 22.8766C75.5773 22.7792 75.7087 22.7038 75.8596 22.6503C76.0105 22.5967 76.1735 22.57 76.3487 22.57ZM80.401 23.5117C80.328 23.4289 80.2526 23.3584 80.1747 23.3C80.1017 23.2416 80.0019 23.2124 79.8754 23.2124C79.8024 23.2124 79.7197 23.2245 79.6272 23.2489C79.5396 23.2683 79.4569 23.3219 79.379 23.4095C79.3011 23.4922 79.2354 23.6163 79.1819 23.7818C79.1332 23.9472 79.1089 24.1711 79.1089 24.4534C79.1089 24.7405 79.1332 24.9692 79.1819 25.1396C79.2354 25.305 79.3011 25.434 79.379 25.5265C79.4617 25.6189 79.5493 25.6798 79.6418 25.709C79.7343 25.7333 79.8243 25.7455 79.9119 25.7455C79.98 25.7455 80.0506 25.7406 80.1236 25.7309C80.1966 25.7163 80.2672 25.7017 80.3353 25.6871C80.4034 25.6676 80.4618 25.6506 80.5105 25.636C80.564 25.6214 80.603 25.6092 80.6273 25.5995L80.8317 26.1251C80.8171 26.1299 80.783 26.1445 80.7295 26.1689C80.6808 26.1932 80.6127 26.2175 80.5251 26.2419C80.4375 26.2662 80.3329 26.2881 80.2112 26.3076C80.0895 26.3319 79.9533 26.3441 79.8024 26.3441C79.5201 26.3441 79.2792 26.3027 79.0797 26.22C78.8802 26.1324 78.7147 26.0107 78.5833 25.855C78.4568 25.6992 78.3619 25.5119 78.2986 25.2929C78.2402 25.0739 78.211 24.8305 78.211 24.5629C78.211 24.2417 78.2524 23.957 78.3351 23.7088C78.4227 23.4606 78.5419 23.2537 78.6928 23.0883C78.8437 22.9179 79.0213 22.789 79.2257 22.7014C79.4301 22.6138 79.6491 22.57 79.8827 22.57C80.1114 22.57 80.3037 22.6138 80.4594 22.7014C80.62 22.789 80.7563 22.9106 80.8682 23.0664L80.401 23.5117ZM82.4024 23.1248C82.5435 22.9398 82.7114 22.806 82.9061 22.7233C83.1056 22.6405 83.3149 22.5992 83.5339 22.5992C83.9086 22.5992 84.1787 22.7135 84.3442 22.9423C84.5145 23.1661 84.5997 23.4703 84.5997 23.8548V26.293H83.7675V23.9132C83.7675 23.7088 83.731 23.5482 83.658 23.4314C83.585 23.3097 83.4609 23.2489 83.2857 23.2489C83.1835 23.2489 83.0788 23.2756 82.9718 23.3292C82.8696 23.3827 82.7747 23.4606 82.6871 23.5628C82.6043 23.6601 82.5362 23.7769 82.4827 23.9132C82.4291 24.0494 82.4024 24.2003 82.4024 24.3658V26.293H81.5702V21.1465L82.4024 21.0005V23.1248ZM88.4316 26.3222C88.1736 26.3222 87.9765 26.2467 87.8403 26.0959C87.704 25.9401 87.6359 25.7406 87.6359 25.4973V22.6576H88.4681V25.4243C88.4681 25.5362 88.4851 25.6116 88.5192 25.6506C88.5532 25.6895 88.6043 25.709 88.6725 25.709C88.6919 25.709 88.7114 25.709 88.7309 25.709C88.7552 25.709 88.7771 25.7065 88.7966 25.7017C88.816 25.7017 88.8379 25.6992 88.8623 25.6944L88.9499 26.22C88.9158 26.2394 88.872 26.2565 88.8185 26.2711C88.7747 26.2857 88.7187 26.2978 88.6506 26.3076C88.5873 26.3173 88.5143 26.3222 88.4316 26.3222ZM88.0666 21.037C88.2223 21.037 88.3415 21.0832 88.4243 21.1757C88.507 21.2681 88.5484 21.3874 88.5484 21.5334C88.5484 21.6794 88.5046 21.801 88.417 21.8984C88.3342 21.9957 88.2101 22.0444 88.0447 22.0444C87.8889 22.0444 87.7673 21.9981 87.6797 21.9057C87.5969 21.8083 87.5556 21.6915 87.5556 21.5553C87.5556 21.4044 87.5969 21.2803 87.6797 21.183C87.7673 21.0856 87.8962 21.037 88.0666 21.037ZM91.9419 26.293V23.9351C91.9419 23.7307 91.9054 23.5676 91.8324 23.446C91.7594 23.3194 91.6353 23.2562 91.4601 23.2562C91.3481 23.2562 91.2386 23.2854 91.1316 23.3438C91.0294 23.3973 90.9369 23.4776 90.8542 23.5847C90.7714 23.6917 90.7033 23.8231 90.6498 23.9789C90.6011 24.1297 90.5768 24.3001 90.5768 24.4899V26.293H89.7446V24.4534C89.7446 24.1614 89.7251 23.918 89.6862 23.7234C89.6472 23.5238 89.6059 23.3632 89.5621 23.2416C89.5085 23.1004 89.4501 22.9861 89.3869 22.8985L90.0439 22.6357C90.0925 22.6892 90.1412 22.7549 90.1899 22.8328C90.2288 22.9009 90.2677 22.9861 90.3067 23.0883C90.3456 23.1856 90.3772 23.2975 90.4016 23.4241C90.5281 23.1321 90.7106 22.9228 90.9491 22.7963C91.1875 22.6649 91.4382 22.5992 91.701 22.5992C92.0757 22.5992 92.3458 22.7135 92.5113 22.9423C92.6816 23.1661 92.7668 23.4703 92.7668 23.8548V26.293H91.9419ZM96.3854 26.9354C96.4584 26.9646 96.5363 26.9938 96.619 27.023C96.7018 27.057 96.7894 27.0887 96.8818 27.1179C96.9743 27.1471 97.0668 27.1714 97.1592 27.1909C97.2566 27.2103 97.3515 27.2201 97.4439 27.2201C97.7165 27.2201 97.9136 27.1373 98.0352 26.9719C98.1569 26.8113 98.2177 26.602 98.2177 26.3441C98.2177 26.091 98.1642 25.8355 98.0571 25.5776C97.9744 25.8258 97.843 26.0156 97.6629 26.147C97.4877 26.2735 97.2541 26.3368 96.9621 26.3368C96.7334 26.3368 96.5339 26.2954 96.3635 26.2127C96.1981 26.1251 96.0594 26.0034 95.9474 25.8477C95.8355 25.6871 95.7528 25.4948 95.6992 25.271C95.6457 25.0471 95.6189 24.7989 95.6189 24.5264C95.6189 24.249 95.6603 23.9935 95.743 23.7599C95.8306 23.5214 95.9499 23.317 96.1007 23.1467C96.2565 22.9763 96.4414 22.8425 96.6555 22.7452C96.8697 22.6478 97.1057 22.5992 97.3636 22.5992C97.4804 22.5992 97.6045 22.6065 97.7359 22.6211C97.8722 22.6357 98.0036 22.6551 98.1301 22.6795C98.2615 22.6989 98.3832 22.7208 98.4951 22.7452C98.6119 22.7695 98.7117 22.7914 98.7944 22.8109L98.7579 24.8184C98.7531 24.9644 98.7604 25.0982 98.7798 25.2199C98.8042 25.3415 98.8309 25.4632 98.8601 25.5849C98.8893 25.7017 98.9161 25.8209 98.9404 25.9426C98.9648 26.0642 98.9769 26.1981 98.9769 26.3441C98.9769 26.8599 98.8455 27.2444 98.5827 27.4975C98.3199 27.7505 97.9647 27.8771 97.5169 27.8771C97.3709 27.8771 97.2249 27.8625 97.0789 27.8333C96.9329 27.8089 96.7967 27.7797 96.6701 27.7457C96.5485 27.7116 96.4438 27.6775 96.3562 27.6435C96.2686 27.6094 96.2102 27.5851 96.181 27.5705L96.3854 26.9354ZM97.1008 25.7528C97.2176 25.7528 97.3247 25.7138 97.422 25.636C97.5242 25.5581 97.6143 25.4559 97.6921 25.3294C97.77 25.198 97.8308 25.0495 97.8746 24.8841C97.9184 24.7186 97.9403 24.5483 97.9403 24.3731V23.2635C97.8917 23.2489 97.8187 23.2318 97.7213 23.2124C97.624 23.1929 97.5364 23.1832 97.4585 23.1832C97.2736 23.1832 97.1203 23.2148 96.9986 23.2781C96.8818 23.3413 96.7869 23.4289 96.7139 23.5409C96.6409 23.6528 96.5898 23.7866 96.5606 23.9424C96.5314 24.0981 96.5168 24.2684 96.5168 24.4534C96.5168 24.6237 96.5217 24.7867 96.5314 24.9425C96.5412 25.0982 96.5655 25.2369 96.6044 25.3586C96.6482 25.4802 96.7091 25.5776 96.7869 25.6506C96.8648 25.7187 96.9694 25.7528 97.1008 25.7528ZM102.023 22.6576H102.855V24.5337C102.855 24.8257 102.872 25.0714 102.906 25.271C102.945 25.4656 102.986 25.6238 103.03 25.7455C103.084 25.8915 103.142 26.0058 103.205 26.0886L102.556 26.3514C102.497 26.2978 102.444 26.2297 102.395 26.147C102.356 26.0788 102.315 25.9961 102.271 25.8988C102.232 25.7966 102.205 25.6773 102.191 25.5411C102.059 25.8282 101.874 26.0326 101.636 26.1543C101.398 26.2759 101.149 26.3368 100.891 26.3368C100.507 26.3368 100.232 26.2248 100.066 26.001C99.9059 25.7771 99.8256 25.4705 99.8256 25.0812V22.6576H100.658V25.0666C100.658 25.271 100.694 25.4316 100.767 25.5484C100.84 25.6652 100.964 25.7236 101.14 25.7236C101.247 25.7236 101.351 25.6944 101.453 25.636C101.561 25.5727 101.655 25.4851 101.738 25.3732C101.826 25.2612 101.894 25.1274 101.943 24.9717C101.996 24.8111 102.023 24.6334 102.023 24.4388V22.6576ZM103.613 22.6576H104.27L104.416 21.8035L105.102 21.6502V22.6576H106L105.898 23.2489H105.102V25.4097C105.102 25.5362 105.136 25.6189 105.204 25.6579C105.273 25.6919 105.348 25.709 105.431 25.709C105.499 25.709 105.567 25.7041 105.635 25.6944C105.703 25.6846 105.764 25.6725 105.818 25.6579C105.881 25.6433 105.942 25.6262 106 25.6068L106.139 26.1543L106.073 26.1762C106.029 26.1956 105.964 26.2175 105.876 26.2419C105.793 26.2613 105.694 26.2784 105.577 26.293C105.465 26.3124 105.341 26.3222 105.204 26.3222C105.068 26.3222 104.942 26.3076 104.825 26.2784C104.713 26.2492 104.616 26.2029 104.533 26.1397C104.45 26.0715 104.384 25.9864 104.336 25.8842C104.292 25.782 104.27 25.6554 104.27 25.5046V23.2489H103.613V22.6576ZM106.472 24.5629C106.472 24.2368 106.516 23.9497 106.604 23.7015C106.696 23.4533 106.82 23.2464 106.976 23.081C107.137 22.9106 107.324 22.7841 107.538 22.7014C107.752 22.6138 107.983 22.57 108.232 22.57C108.451 22.57 108.636 22.5967 108.786 22.6503C108.942 22.7038 109.069 22.7768 109.166 22.8693C109.263 22.9617 109.334 23.0712 109.378 23.1978C109.426 23.3243 109.451 23.4606 109.451 23.6066C109.451 23.7818 109.402 23.9497 109.305 24.1103C109.207 24.266 109.066 24.4047 108.881 24.5264C108.701 24.6432 108.482 24.7381 108.224 24.8111C107.966 24.8792 107.677 24.9157 107.356 24.9206C107.37 25.0325 107.392 25.1396 107.421 25.2418C107.455 25.3391 107.502 25.4267 107.56 25.5046C107.623 25.5776 107.704 25.636 107.801 25.6798C107.898 25.7236 108.02 25.7455 108.166 25.7455C108.273 25.7455 108.387 25.7333 108.509 25.709C108.631 25.6846 108.743 25.6554 108.845 25.6214C108.966 25.5824 109.086 25.5386 109.202 25.49L109.421 26.0083C109.295 26.0715 109.159 26.1275 109.013 26.1762C108.886 26.22 108.74 26.2589 108.575 26.293C108.409 26.327 108.234 26.3441 108.049 26.3441C107.767 26.3441 107.526 26.3027 107.326 26.22C107.127 26.1324 106.964 26.0107 106.837 25.855C106.711 25.6992 106.618 25.5119 106.56 25.2929C106.501 25.0739 106.472 24.8305 106.472 24.5629ZM108.166 23.1394C108.005 23.1394 107.871 23.1783 107.764 23.2562C107.662 23.3292 107.579 23.4265 107.516 23.5482C107.453 23.665 107.407 23.7988 107.377 23.9497C107.353 24.0957 107.339 24.2441 107.334 24.395C107.567 24.3852 107.764 24.356 107.925 24.3074C108.09 24.2538 108.224 24.1906 108.326 24.1176C108.429 24.0397 108.502 23.957 108.545 23.8694C108.594 23.7818 108.618 23.6942 108.618 23.6066C108.618 23.4654 108.577 23.3535 108.494 23.2708C108.412 23.1832 108.302 23.1394 108.166 23.1394ZM112.551 26.293V23.9351C112.551 23.7307 112.514 23.5676 112.441 23.446C112.368 23.3194 112.244 23.2562 112.069 23.2562C111.957 23.2562 111.847 23.2854 111.74 23.3438C111.638 23.3973 111.546 23.4776 111.463 23.5847C111.38 23.6917 111.312 23.8231 111.259 23.9789C111.21 24.1297 111.186 24.3001 111.186 24.4899V26.293H110.353V24.4534C110.353 24.1614 110.334 23.918 110.295 23.7234C110.256 23.5238 110.215 23.3632 110.171 23.2416C110.117 23.1004 110.059 22.9861 109.996 22.8985L110.653 22.6357C110.701 22.6892 110.75 22.7549 110.799 22.8328C110.838 22.9009 110.877 22.9861 110.915 23.0883C110.954 23.1856 110.986 23.2975 111.01 23.4241C111.137 23.1321 111.319 22.9228 111.558 22.7963C111.796 22.6649 112.047 22.5992 112.31 22.5992C112.685 22.5992 112.955 22.7135 113.12 22.9423C113.29 23.1661 113.376 23.4703 113.376 23.8548V26.293H112.551ZM119.389 24.0446H117.352V26.293H116.483V21.3509H117.352V23.4095H119.389V21.3509H120.257V26.293H119.389V24.0446ZM124.275 24.5337C124.275 24.8257 124.292 25.0714 124.326 25.271C124.365 25.4656 124.407 25.6238 124.45 25.7455C124.504 25.8915 124.562 26.0058 124.626 26.0886L123.976 26.3514C123.913 26.2881 123.854 26.2127 123.801 26.1251C123.757 26.0472 123.716 25.9547 123.677 25.8477C123.638 25.7357 123.613 25.6043 123.604 25.4535C123.521 25.7455 123.387 25.9669 123.202 26.1178C123.022 26.2638 122.776 26.3368 122.465 26.3368C122.236 26.3368 122.037 26.2954 121.866 26.2127C121.701 26.1251 121.562 26.0034 121.45 25.8477C121.338 25.6871 121.255 25.4948 121.202 25.271C121.148 25.0471 121.122 24.7989 121.122 24.5264C121.122 24.249 121.163 23.9935 121.246 23.7599C121.333 23.5214 121.453 23.317 121.603 23.1467C121.759 22.9763 121.944 22.8425 122.158 22.7452C122.372 22.6478 122.608 22.5992 122.866 22.5992C123.012 22.5992 123.163 22.6113 123.319 22.6357C123.48 22.6551 123.628 22.677 123.764 22.7014C123.9 22.7257 124.015 22.75 124.107 22.7744C124.205 22.7938 124.261 22.806 124.275 22.8109V24.5337ZM122.604 25.7528C122.725 25.7528 122.837 25.7114 122.939 25.6287C123.042 25.5459 123.129 25.4389 123.202 25.3075C123.28 25.1712 123.338 25.0179 123.377 24.8476C123.421 24.6724 123.443 24.4947 123.443 24.3147V23.2635C123.394 23.2489 123.321 23.2318 123.224 23.2124C123.127 23.1929 123.039 23.1832 122.961 23.1832C122.776 23.1832 122.623 23.2148 122.501 23.2781C122.385 23.3413 122.29 23.4289 122.217 23.5409C122.144 23.6528 122.093 23.7866 122.063 23.9424C122.034 24.0981 122.02 24.2684 122.02 24.4534C122.02 24.6237 122.024 24.7867 122.034 24.9425C122.044 25.0982 122.068 25.2369 122.107 25.3586C122.151 25.4802 122.212 25.5776 122.29 25.6506C122.367 25.7187 122.472 25.7528 122.604 25.7528ZM122.538 21.5407C122.538 21.6721 122.499 21.784 122.421 21.8765C122.343 21.9641 122.226 22.0079 122.071 22.0079C121.929 22.0079 121.82 21.9641 121.742 21.8765C121.669 21.7889 121.633 21.6818 121.633 21.5553C121.633 21.419 121.672 21.3071 121.749 21.2195C121.827 21.127 121.942 21.0808 122.093 21.0808C122.234 21.0808 122.343 21.1246 122.421 21.2122C122.499 21.2998 122.538 21.4093 122.538 21.5407ZM123.998 21.5407C123.998 21.6721 123.959 21.784 123.881 21.8765C123.803 21.9641 123.686 22.0079 123.531 22.0079C123.389 22.0079 123.28 21.9641 123.202 21.8765C123.124 21.7889 123.085 21.6818 123.085 21.5553C123.085 21.419 123.124 21.3071 123.202 21.2195C123.28 21.127 123.397 21.0808 123.553 21.0808C123.694 21.0808 123.803 21.1246 123.881 21.2122C123.959 21.2998 123.998 21.4093 123.998 21.5407ZM127.521 26.293V23.9351C127.521 23.7307 127.484 23.5676 127.411 23.446C127.338 23.3194 127.214 23.2562 127.039 23.2562C126.927 23.2562 126.818 23.2854 126.711 23.3438C126.608 23.3973 126.516 23.4776 126.433 23.5847C126.35 23.6917 126.282 23.8231 126.229 23.9789C126.18 24.1297 126.156 24.3001 126.156 24.4899V26.293H125.324V24.4534C125.324 24.1614 125.304 23.918 125.265 23.7234C125.226 23.5238 125.185 23.3632 125.141 23.2416C125.087 23.1004 125.029 22.9861 124.966 22.8985L125.623 22.6357C125.671 22.6892 125.72 22.7549 125.769 22.8328C125.808 22.9009 125.847 22.9861 125.886 23.0883C125.925 23.1856 125.956 23.2975 125.981 23.4241C126.107 23.1321 126.29 22.9228 126.528 22.7963C126.766 22.6649 127.017 22.5992 127.28 22.5992C127.655 22.5992 127.925 22.7135 128.09 22.9423C128.261 23.1661 128.346 23.4703 128.346 23.8548V26.293H127.521ZM132.046 26.3514C132.036 26.3465 132.014 26.3246 131.98 26.2857C131.946 26.2419 131.907 26.1835 131.863 26.1105C131.824 26.0375 131.785 25.9474 131.746 25.8404C131.707 25.7284 131.683 25.5995 131.673 25.4535C131.591 25.7455 131.457 25.9669 131.272 26.1178C131.092 26.2638 130.846 26.3368 130.534 26.3368C130.306 26.3368 130.106 26.2954 129.936 26.2127C129.77 26.1251 129.632 26.0034 129.52 25.8477C129.408 25.6871 129.325 25.4948 129.272 25.271C129.218 25.0471 129.191 24.7989 129.191 24.5264C129.191 24.249 129.233 23.9935 129.315 23.7599C129.403 23.5214 129.522 23.317 129.673 23.1467C129.829 22.9763 130.014 22.8425 130.228 22.7452C130.442 22.6478 130.678 22.5992 130.936 22.5992C131.024 22.5992 131.116 22.604 131.213 22.6138C131.316 22.6235 131.415 22.6357 131.513 22.6503V21.0005L132.345 21.1465V24.5337C132.345 24.8257 132.362 25.069 132.396 25.2637C132.43 25.4535 132.469 25.6092 132.513 25.7309C132.557 25.8477 132.595 25.9328 132.63 25.9864C132.668 26.0399 132.69 26.074 132.695 26.0886L132.046 26.3514ZM130.673 25.7455C130.795 25.7455 130.907 25.7041 131.009 25.6214C131.111 25.5386 131.199 25.4316 131.272 25.3002C131.35 25.1639 131.408 25.0106 131.447 24.8403C131.491 24.6699 131.513 24.4947 131.513 24.3147V23.2635C131.464 23.2489 131.391 23.2318 131.294 23.2124C131.196 23.1929 131.109 23.1832 131.031 23.1832C130.846 23.1832 130.693 23.2148 130.571 23.2781C130.454 23.3413 130.359 23.4289 130.286 23.5409C130.213 23.6528 130.162 23.7866 130.133 23.9424C130.104 24.0981 130.089 24.2684 130.089 24.4534C130.089 24.6237 130.094 24.7867 130.104 24.9425C130.113 25.0982 130.138 25.2369 130.177 25.3586C130.221 25.4754 130.281 25.5703 130.359 25.6433C130.437 25.7114 130.542 25.7455 130.673 25.7455ZM133.251 24.5629C133.251 24.2368 133.295 23.9497 133.382 23.7015C133.475 23.4533 133.599 23.2464 133.755 23.081C133.915 22.9106 134.103 22.7841 134.317 22.7014C134.531 22.6138 134.762 22.57 135.01 22.57C135.229 22.57 135.414 22.5967 135.565 22.6503C135.721 22.7038 135.847 22.7768 135.945 22.8693C136.042 22.9617 136.113 23.0712 136.156 23.1978C136.205 23.3243 136.229 23.4606 136.229 23.6066C136.229 23.7818 136.181 23.9497 136.083 24.1103C135.986 24.266 135.845 24.4047 135.66 24.5264C135.48 24.6432 135.261 24.7381 135.003 24.8111C134.745 24.8792 134.456 24.9157 134.134 24.9206C134.149 25.0325 134.171 25.1396 134.2 25.2418C134.234 25.3391 134.28 25.4267 134.339 25.5046C134.402 25.5776 134.482 25.636 134.58 25.6798C134.677 25.7236 134.799 25.7455 134.945 25.7455C135.052 25.7455 135.166 25.7333 135.288 25.709C135.409 25.6846 135.521 25.6554 135.624 25.6214C135.745 25.5824 135.864 25.5386 135.981 25.49L136.2 26.0083C136.074 26.0715 135.937 26.1275 135.791 26.1762C135.665 26.22 135.519 26.2589 135.353 26.293C135.188 26.327 135.013 26.3441 134.828 26.3441C134.546 26.3441 134.305 26.3027 134.105 26.22C133.906 26.1324 133.743 26.0107 133.616 25.855C133.489 25.6992 133.397 25.5119 133.339 25.2929C133.28 25.0739 133.251 24.8305 133.251 24.5629ZM134.945 23.1394C134.784 23.1394 134.65 23.1783 134.543 23.2562C134.441 23.3292 134.358 23.4265 134.295 23.5482C134.232 23.665 134.185 23.7988 134.156 23.9497C134.132 24.0957 134.117 24.2441 134.112 24.395C134.346 24.3852 134.543 24.356 134.704 24.3074C134.869 24.2538 135.003 24.1906 135.105 24.1176C135.207 24.0397 135.28 23.957 135.324 23.8694C135.373 23.7818 135.397 23.6942 135.397 23.6066C135.397 23.4654 135.356 23.3535 135.273 23.2708C135.19 23.1832 135.081 23.1394 134.945 23.1394ZM139.329 26.293V23.9351C139.329 23.7307 139.293 23.5676 139.22 23.446C139.147 23.3194 139.023 23.2562 138.848 23.2562C138.736 23.2562 138.626 23.2854 138.519 23.3438C138.417 23.3973 138.324 23.4776 138.242 23.5847C138.159 23.6917 138.091 23.8231 138.037 23.9789C137.989 24.1297 137.964 24.3001 137.964 24.4899V26.293H137.132V24.4534C137.132 24.1614 137.113 23.918 137.074 23.7234C137.035 23.5238 136.993 23.3632 136.95 23.2416C136.896 23.1004 136.838 22.9861 136.774 22.8985L137.431 22.6357C137.48 22.6892 137.529 22.7549 137.577 22.8328C137.616 22.9009 137.655 22.9861 137.694 23.0883C137.733 23.1856 137.765 23.2975 137.789 23.4241C137.916 23.1321 138.098 22.9228 138.337 22.7963C138.575 22.6649 138.826 22.5992 139.089 22.5992C139.463 22.5992 139.733 22.7135 139.899 22.9423C140.069 23.1661 140.154 23.4703 140.154 23.8548V26.293H139.329Z" fill="#D5AF34"/>
</svg>
