<svg width="256" height="256" viewBox="0 0 256 256" fill="none" xmlns="http://www.w3.org/2000/svg">
<path d="M215.273 71.6045V104.448L128 65.3712V32.7678L215.273 71.6045Z" fill="#666767"/>
<path d="M132.241 159.988C132.241 159.988 132.018 159.988 131.794 159.988C131.348 159.988 130.902 159.988 130.455 159.988C129.786 159.988 128.893 160.456 128.223 160.456V175.449C129.116 175.215 129.786 174.98 130.009 173.809C130.455 172.638 131.125 171.467 131.125 170.061C131.125 168.187 131.125 166.079 131.125 164.205C131.125 163.736 131.125 163.268 131.125 162.799C131.125 162.799 131.348 162.565 131.125 162.331C130.678 161.862 131.125 161.628 131.125 161.393C131.348 161.159 131.571 160.691 132.018 160.456C132.018 160.456 132.241 160.457 132.018 159.988H132.241ZM208.13 127.426C208.577 127.426 208.8 127.426 209.246 127.426L215.273 130.003V118.055L128 79.8712V91.8181L138.267 96.2694C139.607 96.9722 140.276 98.3774 139.607 100.017C139.16 101.189 138.267 101.657 137.151 101.657C136.035 101.657 136.482 101.657 136.035 101.657L128 98.1431V135.625C129.339 134.688 130.902 133.751 132.241 133.048C133.134 132.58 134.25 132.111 135.366 131.877C136.035 131.877 136.482 131.877 137.151 131.877C139.16 132.58 140.946 133.516 142.731 134.453C144.294 135.156 145.41 136.328 146.749 137.733C147.642 138.67 147.865 139.841 147.865 141.013C147.865 143.355 147.642 145.464 146.972 147.572C146.303 149.915 146.303 152.257 146.526 154.6C146.526 155.068 146.526 155.069 146.972 155.303C147.865 155.771 148.312 156.474 147.865 157.645C147.865 157.88 147.865 158.348 147.419 158.582C146.972 159.051 147.419 159.285 147.642 159.285C150.32 159.988 152.329 161.862 153.445 164.439C153.445 164.673 153.668 164.907 153.892 165.142C154.338 165.61 155.008 166.313 155.008 167.25C155.008 168.187 155.454 168.89 155.9 169.827C156.124 170.295 156.347 170.998 156.57 171.467C157.909 175.215 158.579 179.197 159.025 183.414C159.249 186.928 159.472 190.207 159.025 193.721C158.579 197.938 157.909 201.92 157.017 205.903C156.57 208.948 155.9 211.994 155.677 215.039C182.015 213.634 203.666 202.155 215.05 183.414V136.796L207.014 133.282C205.675 132.579 205.005 131.174 205.675 129.534C206.121 128.363 207.014 127.895 208.13 127.895V127.426ZM168.623 112.902C168.177 114.073 167.284 114.541 166.168 114.541C165.052 114.541 165.498 114.541 165.052 114.541L149.651 107.748C148.312 107.045 147.642 105.639 148.312 104C148.758 102.828 149.651 102.36 150.767 102.36C151.883 102.36 151.436 102.36 151.883 102.36L167.284 109.154C168.623 109.857 169.293 111.262 168.623 112.902ZM197.193 125.317C196.747 126.489 195.854 126.957 194.738 126.957C193.622 126.957 194.068 126.957 193.622 126.957L178.221 120.164C176.882 119.461 176.212 118.055 176.882 116.415C177.328 115.244 178.221 114.776 179.337 114.776C180.453 114.776 180.007 114.776 180.453 114.776L195.854 121.569C197.193 122.272 197.863 123.678 197.193 125.317Z" fill="#666767"/>
<path d="M40.7266 71.6045V104.448L127.999 65.3712V32.7678L40.7266 71.6045Z" fill="#808080"/>
<path d="M117.535 96.2626L127.777 91.8138V79.8712L40.7266 118.04V129.982L46.7377 127.406C48.0735 126.704 49.6319 127.407 50.2998 128.812C50.2998 129.28 50.2998 129.514 50.2998 129.982C50.2998 131.153 49.6319 132.09 48.7414 132.558L40.7266 136.07V155.038C51.6357 171.195 67.2201 185.713 86.5893 196.719C95.7173 201.87 105.068 206.085 114.641 208.895C114.864 208.895 115.309 208.895 115.532 208.895C116.2 208.895 116.645 208.427 116.868 207.724C117.09 206.788 117.535 205.851 118.426 205.383C118.871 204.914 119.317 204.446 119.317 203.744C119.539 202.807 119.984 202.105 120.652 201.402C121.32 200.465 121.766 199.528 122.433 198.592C122.879 198.123 122.656 197.655 122.433 197.421C122.433 197.421 121.988 197.187 121.766 196.953C120.43 196.25 119.317 195.548 118.203 194.611C117.313 193.909 116.2 193.44 115.309 192.738C114.196 192.035 113.751 191.099 113.305 189.928C113.083 188.523 112.638 187.352 112.415 185.947C112.415 185.01 111.97 184.308 111.524 183.371C110.856 182.434 110.411 181.732 110.189 180.796C110.189 180.562 109.966 180.327 110.189 179.859C110.189 178.922 110.634 177.986 111.079 177.283C111.747 176.347 111.747 176.113 110.634 175.644C109.966 175.176 109.075 174.941 108.185 174.707C107.74 174.707 107.294 174.473 107.072 174.239C105.513 173.068 104.177 171.663 103.509 169.79C102.842 167.917 102.396 166.044 101.951 163.936C101.951 163.468 101.951 162.765 101.951 162.296C101.951 161.594 102.396 161.36 103.064 161.828C103.509 162.297 103.955 162.765 104.4 163.233C105.736 164.873 106.849 166.511 108.407 168.151C109.075 168.853 109.966 169.322 110.856 169.556C110.856 169.556 111.302 169.556 111.524 169.556C111.524 169.556 111.524 169.088 111.302 169.088C110.856 168.151 110.189 167.448 110.189 166.278C110.189 165.809 110.189 165.341 110.189 165.107C110.634 165.107 110.856 165.107 111.079 165.575C112.192 166.98 113.751 168.151 114.864 169.321C115.532 170.024 115.977 170.492 116.2 171.429C116.645 172.366 116.645 173.536 117.758 174.005C119.539 175.878 121.098 177.751 122.879 179.39C123.101 179.625 123.324 179.859 123.547 179.39C123.992 178.922 124.66 178.688 125.328 178.454C125.773 178.454 125.773 178.454 125.773 177.751C125.55 176.815 125.773 175.878 126.886 175.41C127.331 175.41 127.777 175.176 127.999 174.942V159.955C127.331 159.955 126.886 159.955 126.218 159.955C125.328 159.721 124.882 159.019 125.328 158.082C125.476 157.458 125.328 156.989 124.882 156.677C124.214 156.208 123.992 155.974 124.214 155.038C124.214 154.569 124.214 154.335 123.992 154.101C123.324 153.632 123.101 153.398 123.547 152.462C123.695 151.993 123.547 151.681 123.101 151.525C122.433 151.525 122.211 151.057 122.433 150.354C122.656 149.184 123.324 148.481 123.992 147.545C124.214 147.076 124.437 146.608 123.992 146.139C123.769 145.671 123.992 144.969 123.992 144.266C123.992 143.798 123.992 143.095 123.992 142.627C123.992 141.222 124.437 139.817 125.105 138.646C125.55 137.944 125.996 137.475 125.996 136.539C125.996 136.304 126.218 136.071 126.441 135.836C126.886 135.368 127.331 135.134 127.777 134.666V97.1996L119.762 100.712C118.426 101.415 116.868 100.712 116.2 99.3069C116.2 98.8385 116.2 98.6044 116.2 98.136C116.2 96.9652 116.868 96.0283 117.758 95.56L117.535 96.2626ZM77.4613 119.913L62.0995 126.704C60.7637 127.406 59.2052 126.704 58.5373 125.299C57.8694 123.894 58.5373 122.255 59.8731 121.552L75.2349 114.762C76.5707 114.059 78.1292 114.761 78.7971 116.166C78.7971 116.635 78.7971 116.869 78.7971 117.337C78.7971 118.508 78.1292 119.445 77.2386 119.913H77.4613ZM106.181 107.268L90.8193 114.059C89.4835 114.762 87.9251 114.059 87.2572 112.654C86.5893 111.249 87.2572 109.61 88.593 108.908L103.955 102.117C105.291 101.414 106.849 102.117 107.517 103.522C107.517 103.99 107.517 104.224 107.517 104.693C107.517 105.864 106.849 106.8 105.958 107.268H106.181Z" fill="#808080"/>
<path d="M224.548 93.7671V107.481C236.869 133.726 238.437 161.863 226.341 185.035C203.268 229.959 138.308 239.889 81.4118 207.26C24.5155 174.631 -3.03662 111.737 20.0355 66.8127C26.0835 54.9905 35.0436 45.7691 45.7956 38.9122C29.8915 46.4784 16.8995 58.3004 8.83544 74.1421C-16.9247 124.032 15.5555 195.202 81.4118 233.033C147.268 270.864 221.412 260.933 247.173 210.807C265.093 176.05 254.789 130.889 224.773 94.0038L224.548 93.7671Z" fill="#88C140"/>
<path d="M84.0237 21.8604C83.3501 22.3356 82.6765 22.573 82.2274 22.8106C78.1856 25.1867 73.9193 27.3255 69.653 28.9888C67.8567 29.7017 65.8358 30.4144 63.8149 30.652C62.4677 30.8896 60.8959 31.1272 59.5486 30.652C58.6505 30.4144 57.9768 29.7017 57.5278 28.9888C55.956 25.6622 54.3842 22.3354 52.5878 19.2464C52.1387 18.2959 52.3633 17.5833 53.2615 17.1081C54.3842 16.6328 55.5069 16.6325 56.405 17.3453C57.7523 18.2958 59.0996 19.2465 60.4468 19.9593C60.8959 20.1969 61.345 20.6719 62.0186 20.9095C62.6922 21.3848 63.5904 21.3848 64.4886 20.9095C69.653 18.0582 74.8175 15.2071 79.982 12.3558C86.4937 8.79152 93.0054 5.2273 99.5172 1.66307C101.538 0.474992 103.783 -0.00012207 106.029 -0.00012207C107.825 -0.00012207 109.622 0.474992 111.193 1.66307C111.642 1.90068 111.867 2.37591 112.316 2.85114C112.541 3.08876 112.541 3.56376 112.316 3.80137C111.867 4.51422 111.418 4.75207 110.969 5.2273C108.723 7.12822 106.478 8.55391 104.233 9.9796C101.538 11.6429 98.8435 13.3059 95.9245 14.9692C95.7 14.9692 95.4754 15.4445 95.2509 15.6821C92.5564 23.0482 89.8619 30.6522 87.1673 38.0183C86.7183 39.2064 86.0446 40.3942 84.9219 41.3447C84.2483 41.8199 82.452 42.7703 82.2274 43.0079C82.0029 43.0079 81.7783 43.0082 81.5538 42.7706C81.5538 42.2954 81.5538 42.0578 81.5538 41.5825C82.0029 38.7312 82.2274 35.6417 82.6765 32.7903C83.1256 29.4637 83.3501 26.1372 83.7992 22.8106C83.7992 22.573 83.7992 22.098 83.7992 21.8604H84.0237Z" fill="#88C140"/>
<path d="M83.394 9.61926C82.5267 10.1157 81.6594 10.6125 81.0089 11.1089C79.2743 12.1019 77.3229 13.3432 75.5882 14.3362C75.3714 14.3362 75.1546 14.3362 74.9378 14.3362C72.5527 12.8467 69.9507 11.3572 67.5657 9.86775C67.132 9.61951 66.6983 9.3709 66.2647 8.87443C65.831 8.37795 65.831 8.12995 66.2647 7.88171C66.4815 7.88171 66.6983 7.6336 66.9152 7.38536C67.7825 6.64064 69.0834 6.3924 70.1676 6.14417C71.6854 6.14417 72.9863 6.39252 74.5041 6.889C77.3229 7.63372 80.1416 8.62667 82.9604 9.37139C82.9604 9.37139 82.9604 9.37139 83.1772 9.37139L83.394 9.61926Z" fill="#88C140"/>
</svg>
