<svg width="400" height="109" viewBox="0 0 400 109" fill="none" xmlns="http://www.w3.org/2000/svg">
<path d="M96.1443 30.2V43.8999L57.1443 27.5999V14L96.1443 30.2Z" fill="#666767"/>
<path d="M58.9444 67.7C58.9444 67.7 58.8444 67.7 58.7444 67.7C58.5444 67.7 58.3444 67.7 58.1444 67.7C57.8444 67.7 57.4444 67.8999 57.1444 67.8999V74.2998C57.5444 74.1998 57.8444 74.0999 57.9444 73.5999C58.1444 73.0999 58.4444 72.6 58.4444 72C58.4444 71.2 58.4444 70.3 58.4444 69.5C58.4444 69.3 58.4444 69.0999 58.4444 68.8999C58.4444 68.8999 58.5444 68.8 58.4444 68.7C58.2444 68.5 58.4444 68.3998 58.4444 68.2998C58.5444 68.1998 58.6444 67.9999 58.8444 67.8999C58.8444 67.8999 58.9444 67.9 58.8444 67.7H58.9444ZM92.9444 53.7998C93.1444 53.7998 93.2444 53.7998 93.4444 53.7998L96.1444 54.8999V49.7998L57.0444 33.5V38.5999L61.6444 40.5C62.2444 40.8 62.5444 41.3999 62.2444 42.0999C62.0444 42.5999 61.6444 42.7998 61.1444 42.7998C60.6444 42.7998 60.8444 42.7998 60.6444 42.7998L57.0444 41.2998V57.2998C57.6444 56.8998 58.3444 56.5 58.9444 56.2C59.3444 56 59.8444 55.8 60.3444 55.7C60.6444 55.7 60.8444 55.7 61.1444 55.7C62.0444 56 62.8444 56.3998 63.6444 56.7998C64.3444 57.0998 64.8444 57.6 65.4444 58.2C65.8444 58.6 65.9444 59.0999 65.9444 59.5999C65.9444 60.5999 65.8444 61.4999 65.5444 62.3999C65.2444 63.3999 65.2444 64.3999 65.3444 65.3999C65.3444 65.5999 65.3444 65.6 65.5444 65.7C65.9444 65.9 66.1444 66.2 65.9444 66.7C65.9444 66.8 65.9444 66.9999 65.7444 67.0999C65.5444 67.2999 65.7444 67.3999 65.8444 67.3999C67.0444 67.6999 67.9444 68.4999 68.4444 69.5999C68.4444 69.6999 68.5444 69.7999 68.6444 69.8999C68.8444 70.0999 69.1444 70.3998 69.1444 70.7998C69.1444 71.1998 69.3444 71.4999 69.5444 71.8999C69.6444 72.0999 69.7444 72.3999 69.8444 72.5999C70.4444 74.1999 70.7444 75.9 70.9444 77.7C71.0444 79.2 71.1444 80.5999 70.9444 82.0999C70.7444 83.8999 70.4444 85.5998 70.0444 87.2998C69.8444 88.5998 69.5444 89.9 69.4444 91.2C81.2444 90.6 90.9444 85.7 96.0444 77.7V57.7998L92.4444 56.2998C91.8444 55.9998 91.5444 55.4 91.8444 54.7C92.0444 54.2 92.4444 54 92.9444 54V53.7998ZM75.2444 47.5999C75.0444 48.0999 74.6444 48.2998 74.1444 48.2998C73.6444 48.2998 73.8444 48.2998 73.6444 48.2998L66.7444 45.3999C66.1444 45.0999 65.8444 44.4998 66.1444 43.7998C66.3444 43.2998 66.7444 43.0999 67.2444 43.0999C67.7444 43.0999 67.5444 43.0999 67.7444 43.0999L74.6444 46C75.2444 46.3 75.5444 46.8999 75.2444 47.5999ZM88.0444 52.8999C87.8444 53.3999 87.4444 53.5999 86.9444 53.5999C86.4444 53.5999 86.6444 53.5999 86.4444 53.5999L79.5444 50.7C78.9444 50.4 78.6444 49.7999 78.9444 49.0999C79.1444 48.5999 79.5444 48.3999 80.0444 48.3999C80.5444 48.3999 80.3444 48.3999 80.5444 48.3999L87.4444 51.2998C88.0444 51.5998 88.3444 52.1999 88.0444 52.8999Z" fill="#666767"/>
<path d="M18.0444 30.2V43.8999L57.1444 27.5999V14L18.0444 30.2Z" fill="#808080"/>
<path d="M52.5444 40.5999L57.1444 38.7V33.5999L18.0444 49.8999V55L20.7444 53.8999C21.3444 53.5999 22.0444 53.9 22.3444 54.5C22.3444 54.7 22.3444 54.8 22.3444 55C22.3444 55.5 22.0444 55.8999 21.6444 56.0999L18.0444 57.5999V65.7C22.9444 72.6 29.9444 78.8 38.6444 83.5C42.7444 85.7 46.9444 87.5 51.2444 88.7C51.3444 88.7 51.5444 88.7 51.6444 88.7C51.9444 88.7 52.1444 88.5 52.2444 88.2C52.3444 87.8 52.5444 87.4 52.9444 87.2C53.1444 87 53.3444 86.8 53.3444 86.5C53.4444 86.1 53.6444 85.8 53.9444 85.5C54.2444 85.1 54.4444 84.6998 54.7444 84.2998C54.9444 84.0998 54.8444 83.8998 54.7444 83.7998C54.7444 83.7998 54.5444 83.6999 54.4444 83.5999C53.8444 83.2999 53.3444 82.9999 52.8444 82.5999C52.4444 82.2999 51.9444 82.0998 51.5444 81.7998C51.0444 81.4998 50.8444 81.0999 50.6444 80.5999C50.5444 79.9999 50.3444 79.4999 50.2444 78.8999C50.2444 78.4999 50.0444 78.1998 49.8444 77.7998C49.5444 77.3998 49.3444 77.1 49.2444 76.7C49.2444 76.6 49.1444 76.4998 49.2444 76.2998C49.2444 75.8998 49.4444 75.5 49.6444 75.2C49.9444 74.8 49.9444 74.7 49.4444 74.5C49.1444 74.3 48.7444 74.1999 48.3444 74.0999C48.1444 74.0999 47.9444 73.9999 47.8444 73.8999C47.1444 73.3999 46.5444 72.8 46.2444 72C45.9444 71.2 45.7444 70.4 45.5444 69.5C45.5444 69.3 45.5444 68.9998 45.5444 68.7998C45.5444 68.4998 45.7444 68.3999 46.0444 68.5999C46.2444 68.7999 46.4444 69 46.6444 69.2C47.2444 69.9 47.7444 70.5998 48.4444 71.2998C48.7444 71.5998 49.1444 71.7999 49.5444 71.8999C49.5444 71.8999 49.7444 71.8999 49.8444 71.8999C49.8444 71.8999 49.8444 71.7 49.7444 71.7C49.5444 71.3 49.2444 71 49.2444 70.5C49.2444 70.3 49.2444 70.1 49.2444 70C49.4444 70 49.5444 70 49.6444 70.2C50.1444 70.8 50.8444 71.2998 51.3444 71.7998C51.6444 72.0998 51.8444 72.3 51.9444 72.7C52.1444 73.1 52.1444 73.5998 52.6444 73.7998C53.4444 74.5998 54.1444 75.3999 54.9444 76.0999C55.0444 76.1999 55.1444 76.2999 55.2444 76.0999C55.4444 75.8999 55.7444 75.8 56.0444 75.7C56.2444 75.7 56.2444 75.6999 56.2444 75.3999C56.1444 74.9999 56.2444 74.5999 56.7444 74.3999C56.9444 74.3999 57.1444 74.3 57.2444 74.2V67.7998C56.9444 67.7998 56.7444 67.7998 56.4444 67.7998C56.0444 67.6998 55.8444 67.4 56.0444 67C56.1111 66.7333 56.0444 66.5332 55.8444 66.3999C55.5444 66.1999 55.4444 66.1 55.5444 65.7C55.5444 65.5 55.5444 65.3998 55.4444 65.2998C55.1444 65.0998 55.0444 64.9999 55.2444 64.5999C55.3111 64.3999 55.2444 64.2666 55.0444 64.2C54.7444 64.2 54.6444 64 54.7444 63.7C54.8444 63.2 55.1444 62.9 55.4444 62.5C55.5444 62.3 55.6444 62.0999 55.4444 61.8999C55.3444 61.6999 55.4444 61.3999 55.4444 61.0999C55.4444 60.8999 55.4444 60.5999 55.4444 60.3999C55.4444 59.7999 55.6444 59.2 55.9444 58.7C56.1444 58.4 56.3444 58.1998 56.3444 57.7998C56.3444 57.6998 56.4444 57.6 56.5444 57.5C56.7444 57.3 56.9444 57.2 57.1444 57V41L53.5444 42.5C52.9444 42.8 52.2444 42.4999 51.9444 41.8999C51.9444 41.6999 51.9444 41.5999 51.9444 41.3999C51.9444 40.8999 52.2444 40.4998 52.6444 40.2998L52.5444 40.5999ZM34.5444 50.7L27.6444 53.5999C27.0444 53.8999 26.3444 53.6 26.0444 53C25.7444 52.4 26.0444 51.6999 26.6444 51.3999L33.5444 48.5C34.1444 48.2 34.8444 48.4999 35.1444 49.0999C35.1444 49.2999 35.1444 49.3999 35.1444 49.5999C35.1444 50.0999 34.8444 50.5 34.4444 50.7H34.5444ZM47.4444 45.2998L40.5444 48.2C39.9444 48.5 39.2444 48.1999 38.9444 47.5999C38.6444 46.9999 38.9444 46.3 39.5444 46L46.4444 43.0999C47.0444 42.7999 47.7444 43.1 48.0444 43.7C48.0444 43.9 48.0444 44 48.0444 44.2C48.0444 44.7 47.7444 45.0998 47.3444 45.2998H47.4444Z" fill="#808080"/>
<path d="M100.244 39.5999V45.3999C105.744 56.4999 106.444 68.4 101.044 78.2C90.7444 97.2 61.7444 101.4 36.3444 87.5999C10.9444 73.7999 -1.35563 47.2 8.94437 28.2C11.6444 23.2 15.6444 19.2999 20.4444 16.3999C13.3444 19.5999 7.54437 24.5998 3.94437 31.2998C-7.55563 52.3998 6.94437 82.5 36.3444 98.5C65.7444 114.5 98.8444 110.3 110.344 89.0999C118.344 74.3999 113.744 55.3 100.344 39.7L100.244 39.5999Z" fill="#88C140"/>
<path d="M37.8441 9.19995C37.5441 9.39995 37.2441 9.49985 37.0441 9.59985C35.2441 10.5999 33.3441 11.5 31.4441 12.2C30.6441 12.5 29.7441 12.7999 28.8441 12.8999C28.2441 12.9999 27.5441 13.0999 26.9441 12.8999C26.5441 12.7999 26.2441 12.5 26.0441 12.2C25.3441 10.8 24.6441 9.39985 23.8441 8.09985C23.6441 7.69985 23.7441 7.39995 24.1441 7.19995C24.6441 6.99995 25.1441 6.9998 25.5441 7.2998C26.1441 7.6998 26.7441 8.0999 27.3441 8.3999C27.5441 8.4999 27.7441 8.6998 28.0441 8.7998C28.3441 8.9998 28.7441 8.9998 29.1441 8.7998C31.4441 7.5998 33.7441 6.39995 36.0441 5.19995C38.9441 3.69995 41.8441 2.19995 44.7441 0.699951C45.6441 0.199951 46.6441 0 47.6441 0C48.4441 0 49.2441 0.199951 49.9441 0.699951C50.1441 0.799951 50.2441 0.999951 50.4441 1.19995C50.5441 1.29995 50.5441 1.49985 50.4441 1.59985C50.2441 1.89985 50.0441 1.99995 49.8441 2.19995C48.8441 2.99995 47.8441 3.59995 46.8441 4.19995C45.6441 4.89995 44.4441 5.5998 43.1441 6.2998C43.0441 6.2998 42.9441 6.49985 42.8441 6.59985C41.6441 9.69985 40.4441 12.9 39.2441 16C39.0441 16.5 38.7441 16.9999 38.2441 17.3999C37.9441 17.5999 37.1441 17.9999 37.0441 18.0999C36.9441 18.0999 36.8441 18.1 36.7441 18C36.7441 17.8 36.7441 17.7 36.7441 17.5C36.9441 16.3 37.0441 14.9998 37.2441 13.7998C37.4441 12.3998 37.5441 10.9999 37.7441 9.59985C37.7441 9.49985 37.7441 9.29995 37.7441 9.19995H37.8441Z" fill="#88C140"/>
<path d="M37.1442 3.59985C36.7442 3.79985 36.3442 3.99995 36.0442 4.19995C35.2442 4.59995 34.3442 5.1 33.5442 5.5C33.4442 5.5 33.3442 5.5 33.2442 5.5C32.1442 4.9 30.9442 4.29995 29.8442 3.69995C29.6442 3.59995 29.4442 3.4998 29.2442 3.2998C29.0442 3.0998 29.0442 2.9999 29.2442 2.8999C29.3442 2.8999 29.4442 2.79995 29.5442 2.69995C29.9442 2.39995 30.5442 2.29995 31.0442 2.19995C31.7442 2.19995 32.3442 2.3 33.0442 2.5C34.3442 2.8 35.6442 3.2 36.9442 3.5C36.9442 3.5 36.9442 3.5 37.0442 3.5L37.1442 3.59985Z" fill="#88C140"/>
<path d="M141.444 63.8999H135.944V29.7H141.444V63.8999Z" fill="#666767"/>
<path d="M184.544 29.2V63.8999H179.044V42.5L169.244 55.2998H167.344L157.544 42.5V63.8999H152.044V29.2H153.944L168.244 48.2998L182.544 29.2H184.444H184.544Z" fill="#666767"/>
<path d="M217.644 34.7H200.644V43.3999H213.444V48.2H200.644V59H218.244V63.8999H195.144V29.7H217.644V34.5999V34.7Z" fill="#666767"/>
<path d="M260.744 63.8999L251.044 50.7H244.744V63.8999H239.244V29.7H251.744C255.244 29.7 257.944 30.6999 260.144 32.5999C262.244 34.4999 263.344 37.1 263.344 40.2C263.344 43.3 262.744 44.3999 261.644 46.0999C260.444 47.7999 258.844 48.9998 256.844 49.7998L267.044 63.8999H260.744ZM244.744 45.7998H251.644C253.544 45.7998 255.044 45.3 256.144 44.2C257.244 43.2 257.744 41.8 257.744 40.2C257.744 38.6 257.244 37.0999 256.144 36.0999C255.044 35.0999 253.544 34.5 251.644 34.5H244.744V45.7V45.7998Z" fill="#666767"/>
<path d="M295.744 53H276.844C277.144 55.1 278.144 56.6999 279.544 57.8999C281.044 59.0999 282.844 59.7 285.044 59.7C287.244 59.7 290.144 58.7 292.444 56.7L295.044 60.3999C292.144 63.0999 288.744 64.5 284.944 64.5C281.144 64.5 277.744 63.2 275.144 60.7C272.544 58.2 271.244 54.9998 271.244 51.2998C271.244 47.5998 272.544 44.3999 275.044 41.8999C277.544 39.2999 280.744 38 284.344 38C287.944 38 290.544 39.0998 292.744 41.2998C294.944 43.4998 296.044 46.2999 296.044 49.5999C296.044 52.8999 295.944 51.8 295.644 53H295.744ZM279.544 44.2C278.244 45.3 277.344 46.8 276.944 48.7H290.744C290.744 46.8 290.044 45.3 288.844 44.2C287.644 43.1 286.044 42.5 284.244 42.5C282.444 42.5 280.844 43.1 279.544 44.2Z" fill="#666767"/>
<path d="M309.844 26.5C310.544 27.2 310.944 28.0999 310.944 29.0999C310.944 30.0999 310.544 30.8999 309.844 31.5999C309.144 32.2999 308.244 32.5999 307.244 32.5999C306.244 32.5999 305.344 32.2999 304.644 31.5999C303.944 30.8999 303.544 30.0999 303.544 29.0999C303.544 28.0999 303.944 27.2 304.644 26.5C305.344 25.8 306.244 25.3999 307.244 25.3999C308.244 25.3999 309.144 25.8 309.844 26.5ZM309.944 63.8999H304.544V38.5H309.944V63.8999Z" fill="#666767"/>
<path d="M336.744 41.8999L333.744 45.2998C332.044 43.5998 330.144 42.7 327.744 42.7C325.344 42.7 324.244 43.4999 324.244 45.0999C324.244 46.6999 324.444 46.3 325.044 46.7C325.544 47.1 326.444 47.5999 327.644 48.0999L330.044 49.0999C332.444 50.0999 334.244 51.1998 335.344 52.2998C336.444 53.4998 337.044 54.9 337.044 56.7C337.044 58.5 336.144 61.0999 334.344 62.3999C332.544 63.7999 330.344 64.3999 327.644 64.3999C323.344 64.3999 319.944 62.8 317.444 59.5L320.544 56.0999C322.844 58.4999 325.244 59.7 327.644 59.7C330.044 59.7 329.744 59.5 330.544 59C331.344 58.5 331.744 57.7999 331.744 56.8999C331.744 55.9999 331.444 55.5999 330.844 55.0999C330.244 54.6999 329.344 54.2 328.144 53.7L325.544 52.5999C323.344 51.6999 321.644 50.7 320.544 49.5C319.444 48.4 318.944 46.9 318.944 45.2C318.944 43.5 319.744 41.0998 321.444 39.7998C323.144 38.4998 325.244 37.7998 327.844 37.7998C330.444 37.7998 334.444 39.1 336.644 41.7L336.744 41.8999Z" fill="#666767"/>
<path d="M368.344 53H349.444C349.744 55.1 350.744 56.6999 352.144 57.8999C353.644 59.0999 355.444 59.7 357.644 59.7C359.844 59.7 362.744 58.7 365.044 56.7L367.644 60.3999C364.744 63.0999 361.344 64.5 357.544 64.5C353.744 64.5 350.344 63.2 347.744 60.7C345.144 58.2 343.844 54.9998 343.844 51.2998C343.844 47.5998 345.144 44.3999 347.644 41.8999C350.144 39.2999 353.344 38 356.944 38C360.544 38 363.144 39.0998 365.344 41.2998C367.544 43.4998 368.644 46.2999 368.644 49.5999C368.644 52.8999 368.544 51.8 368.244 53H368.344ZM352.144 44.2C350.844 45.3 349.944 46.8 349.544 48.7H363.344C363.344 46.8 362.644 45.3 361.444 44.2C360.244 43.1 358.644 42.5 356.844 42.5C355.044 42.5 353.444 43.1 352.144 44.2Z" fill="#666767"/>
<path d="M396.744 40.7C398.444 42.5 399.244 45 399.244 48V63.8999H393.844V48.7C393.844 46.9 393.344 45.4999 392.344 44.3999C391.344 43.2999 389.944 42.7998 388.344 42.7998C386.744 42.7998 385.244 43.4 384.144 44.5C383.044 45.6 382.544 47 382.544 48.7V63.8999H377.144V38.5H382.244V41C384.144 38.9 386.644 37.8999 389.844 37.8999C393.044 37.8999 395.144 38.8 396.844 40.7H396.744Z" fill="#666767"/>
<path d="M146.344 85.5999C146.344 87.1999 145.844 88.5 144.944 89.5C143.944 90.4 142.744 90.8999 141.244 90.8999C139.744 90.8999 138.444 90.4 137.444 89.5C136.444 88.6 136.044 87.2999 136.044 85.5999V78.0999H138.044V85.7C138.044 86.8 138.344 87.6 138.944 88.2C139.544 88.8 140.344 89.0999 141.244 89.0999C142.144 89.0999 142.944 88.8 143.544 88.2C144.144 87.6 144.444 86.8 144.444 85.7V78.0999H146.444V85.5999H146.344Z" fill="#88C140"/>
<path d="M172.444 77.7998V90.5999H170.444V82.7L166.844 87.3999H166.144L162.544 82.7V90.5999H160.544V77.7998H161.244L166.544 84.7998L171.844 77.7998H172.544H172.444Z" fill="#88C140"/>
<path d="M194.644 90.5999L191.044 85.7H188.744V90.5999H186.744V78H191.344C192.644 78 193.644 78.3999 194.444 79.0999C195.244 79.7999 195.644 80.6999 195.644 81.8999C195.644 83.0999 195.444 83.4999 195.044 84.0999C194.644 84.6999 194.044 85.2 193.244 85.5L197.044 90.7H194.744L194.644 90.5999ZM188.744 84H191.244C191.944 84 192.444 83.7999 192.844 83.3999C193.244 82.9999 193.444 82.4999 193.444 81.8999C193.444 81.2999 193.244 80.7999 192.844 80.3999C192.444 79.9999 191.944 79.7998 191.244 79.7998H188.744V83.8999V84Z" fill="#88C140"/>
<path d="M217.344 88.5H211.644L210.744 90.5999H208.544L214.144 77.7998H214.844L220.444 90.5999H218.244L217.344 88.5ZM214.544 81.5999L212.444 86.7998H216.644L214.544 81.5999Z" fill="#88C140"/>
<path d="M247.544 88.0999L249.644 90.5999H247.244L246.244 89.3999C245.144 90.2999 243.944 90.7998 242.644 90.7998C241.344 90.7998 240.544 90.4999 239.744 89.8999C238.944 89.2999 238.644 88.5 238.644 87.5C238.644 86.5 238.844 86.1 239.344 85.5C239.744 84.9 240.444 84.2999 241.344 83.5999C240.544 82.5999 240.144 81.6 240.144 80.7C240.144 79.8 240.444 79.1999 240.944 78.5999C241.444 78.0999 242.244 77.7998 243.144 77.7998C244.044 77.7998 244.744 78.0999 245.244 78.5999C245.744 79.0999 246.044 79.7 246.044 80.5C246.044 81.6 245.344 82.6998 243.944 83.7998L246.244 86.5999C246.644 85.9999 247.244 85.1999 248.044 83.8999L249.644 85C248.444 86.8 247.744 87.7999 247.544 88.0999ZM245.044 88L242.544 84.8999C242.144 85.1999 241.844 85.5 241.644 85.7C241.444 85.9 241.244 86.0999 241.044 86.3999C240.844 86.6999 240.744 86.9998 240.744 87.2998C240.744 87.7998 240.944 88.1999 241.344 88.5999C241.744 88.8999 242.244 89.0999 242.844 89.0999C243.444 89.0999 244.344 88.7999 245.144 88.0999L245.044 88ZM242.344 79.8999C242.144 80.0999 242.044 80.4 242.044 80.7C242.044 81.2 242.344 81.8 242.944 82.5C243.844 81.8 244.244 81.1999 244.244 80.5999C244.244 79.9999 243.844 79.5 243.144 79.5C242.444 79.5 242.544 79.5998 242.344 79.7998V79.8999Z" fill="#88C140"/>
<path d="M280.144 90.5999H278.144V84.7998H271.844V90.5999H269.844V78H271.844V83H278.144V78H280.144V90.5999Z" fill="#88C140"/>
<path d="M301.944 88.5H296.244L295.344 90.5999H293.144L298.744 77.7998H299.444L305.044 90.5999H302.844L301.944 88.5ZM299.144 81.5999L297.044 86.7998H301.244L299.144 81.5999Z" fill="#88C140"/>
<path d="M327.044 79.7998C328.244 80.9998 328.944 82.4998 328.944 84.2998C328.944 86.0998 328.344 87.6999 327.044 88.8999C325.744 90.0999 324.144 90.7 322.044 90.7H318.044V78.0999H322.044C324.144 78.0999 325.744 78.6998 327.044 79.7998ZM320.144 79.8999V88.8999H322.044C323.544 88.8999 324.644 88.4999 325.544 87.5999C326.444 86.7999 326.844 85.6999 326.844 84.3999C326.844 83.0999 326.444 82 325.544 81.2C324.644 80.4 323.544 80 322.044 80H320.144V79.8999Z" fill="#88C140"/>
<path d="M348.544 78.5C349.244 78.9 349.844 79.4999 350.244 80.0999L348.844 81.2C348.144 80.2 347.244 79.7 346.144 79.7C345.044 79.7 345.144 79.7999 344.744 80.0999C344.344 80.3999 344.144 80.7 344.144 81.2C344.144 81.7 344.244 82 344.544 82.2C344.844 82.4 345.244 82.7 345.944 83L347.344 83.5999C348.344 84.0999 349.144 84.5999 349.644 85.0999C350.144 85.5999 350.344 86.3 350.344 87.2C350.344 88.1 349.944 89.1998 349.144 89.7998C348.344 90.4998 347.344 90.7998 346.144 90.7998C344.944 90.7998 344.144 90.5999 343.344 90.0999C342.544 89.5999 341.844 88.8999 341.344 88.0999L342.744 87C343.644 88.3 344.744 89 346.044 89C347.344 89 347.244 88.8 347.644 88.5C348.044 88.2 348.244 87.8 348.244 87.2C348.244 86.6 348.144 86.3999 347.844 86.0999C347.544 85.7999 347.044 85.5998 346.444 85.2998L345.044 84.7C344.144 84.3 343.344 83.8 342.844 83.2C342.344 82.7 342.044 82 342.044 81.2C342.044 80.4 342.444 79.4 343.144 78.7C343.944 78.1 344.844 77.7998 345.944 77.7998C347.044 77.7998 347.644 77.9999 348.344 78.3999L348.544 78.5Z" fill="#88C140"/>
<path d="M373.144 78.5999C374.044 79.0999 374.844 79.8 375.344 80.7L373.844 81.7998C372.944 80.2998 371.644 79.5999 369.944 79.5999C368.244 79.5999 367.544 79.9999 366.744 80.8999C365.844 81.7999 365.444 82.9 365.444 84.2C365.444 85.5 365.844 86.6 366.744 87.5C367.644 88.4 368.644 88.7998 369.944 88.7998C371.244 88.7998 372.844 88.0999 373.844 86.5999L375.344 87.7C374.844 88.6 374.044 89.2998 373.144 89.7998C372.244 90.2998 371.144 90.5999 369.944 90.5999C368.044 90.5999 366.544 90 365.244 88.7C363.944 87.5 363.344 85.8999 363.344 84.0999C363.344 82.2999 363.944 80.7 365.244 79.5C366.544 78.2 368.144 77.5999 369.944 77.5999C371.744 77.5999 372.144 77.8999 373.144 78.3999V78.5999Z" fill="#88C140"/>
<path d="M399.244 90.5999H397.244V84.7998H390.944V90.5999H388.944V78H390.944V83H397.244V78H399.244V90.5999Z" fill="#88C140"/>
</svg>
